<?xml version="1.0" standalone="no"?>
<!DOCTYPE svg PUBLIC "-//W3C//DTD SVG 20010904//EN"
 "http://www.w3.org/TR/2001/REC-SVG-20010904/DTD/svg10.dtd">
<svg version="1.0" xmlns="http://www.w3.org/2000/svg"
 width="56.000000pt" height="57.000000pt" viewBox="0 0 56.000000 57.000000"
 preserveAspectRatio="xMidYMid meet">

<g transform="translate(0.000000,57.000000) scale(0.100000,-0.100000)"
fill="#000000" stroke="none">
<path d="M0 285 l0 -285 280 0 280 0 0 285 0 285 -280 0 -280 0 0 -285z m300
105 c0 12 2 13 9 1 5 -7 6 -22 3 -33 -2 -11 1 -30 8 -44 10 -18 11 -27 2 -36
-8 -8 -10 -6 -6 9 3 12 2 23 -3 26 -5 3 -8 -7 -7 -24 3 -37 -10 -45 -42 -25
-23 16 -24 18 -9 46 9 17 13 40 9 54 -8 35 4 52 22 29 11 -14 13 -15 14 -3z
m-197 -42 c8 -12 7 -23 -2 -41 -15 -28 -3 -60 29 -77 27 -14 96 -12 160 5 30
8 75 15 98 15 43 0 112 -25 112 -40 0 -4 -17 1 -37 11 -47 24 -76 24 -193 -2
-89 -20 -97 -21 -133 -6 -23 10 -41 26 -48 44 -8 22 -12 24 -19 13 -7 -11 -10
0 -10 35 0 36 -3 46 -10 35 -5 -8 -7 -24 -4 -35 4 -16 3 -17 -5 -5 -15 21 -14
36 5 55 20 19 43 16 57 -7z m293 -38 c1 -47 1 -49 -3 -10 -6 68 -23 74 -25 10
l-1 -55 -7 55 -7 55 -1 -47 c-1 -26 -5 -49 -9 -51 -5 -3 -6 19 -5 48 4 51 5
54 30 52 26 -2 27 -5 28 -57z m129 9 c-5 -49 -4 -51 12 -38 16 12 17 12 6 -2
-9 -11 -29 -15 -70 -15 -54 1 -58 2 -58 25 0 13 6 26 14 29 10 3 12 -2 7 -22
-8 -32 5 -35 19 -4 15 32 35 34 35 3 0 -15 4 -24 10 -20 6 3 10 26 10 51 0 24
4 44 10 44 6 0 8 -21 5 -51z m-325 25 c0 -9 6 -22 14 -28 20 -16 32 -60 15
-54 -7 2 -16 15 -20 29 -7 24 -7 24 -8 -3 -1 -26 -4 -28 -41 -26 -38 1 -40 3
-39 32 l2 31 5 -30 c5 -30 5 -30 11 -5 7 25 41 42 41 20 0 -6 -4 -9 -9 -5 -15
9 -25 -15 -12 -28 17 -17 32 10 28 51 -1 17 1 32 5 32 4 0 8 -7 8 -16z m296
-277 c1 -25 1 -25 -3 -2 -3 17 -11 25 -24 25 -11 0 -17 -5 -14 -10 4 -6 11 -8
16 -5 5 4 9 -2 9 -11 0 -10 -3 -14 -7 -11 -3 4 -11 2 -18 -3 -8 -7 -12 -4 -12
8 -2 32 7 43 29 40 17 -2 23 -10 24 -31z m-396 11 c0 7 11 11 29 10 22 -2 28
-7 27 -23 -1 -15 -8 -22 -28 -23 -17 -1 -28 3 -28 10 0 10 -2 10 -9 -1 -6 -9
-8 -5 -8 14 0 19 2 23 8 14 7 -11 9 -11 9 -1z m170 -18 c10 -18 8 -20 -30 -20
-41 0 -49 7 -28 28 18 18 46 14 58 -8z m126 8 c5 -7 3 -8 -6 -3 -10 6 -12 4
-7 -8 5 -14 0 -17 -26 -17 -26 0 -33 4 -33 20 0 16 7 20 33 20 17 0 35 -5 39
-12z"/>
<path d="M280 350 c0 -11 5 -20 10 -20 6 0 10 9 10 20 0 11 -4 20 -10 20 -5 0
-10 -9 -10 -20z"/>
<path d="M263 304 c-3 -8 -2 -19 3 -24 5 -5 9 1 9 16 0 28 -3 30 -12 8z"/>
<path d="M68 330 c5 -36 27 -35 27 1 0 14 -7 25 -16 27 -12 2 -15 -4 -11 -28z"/>
<path d="M467 296 c-4 -10 -5 -21 -2 -24 9 -9 17 6 13 25 -3 17 -4 17 -11 -1z"/>
</g>
</svg>
